<?xml version="1.0" standalone="no"?>
<!DOCTYPE svg PUBLIC "-//W3C//DTD SVG 20010904//EN"
 "http://www.w3.org/TR/2001/REC-SVG-20010904/DTD/svg10.dtd">
<svg version="1.0" xmlns="http://www.w3.org/2000/svg"
 width="1280.000000pt" height="1244.000000pt" viewBox="0 0 1280.000000 1244.000000"
 preserveAspectRatio="xMidYMid meet">
<g transform="translate(0.000000,1244.000000) scale(0.100000,-0.100000)"
fill="#fff" stroke="black" stroke-width="800">
<path d="M3585 10484 c-16 -2 -70 -9 -120 -15 -734 -88 -1425 -478 -1850
-1044 -272 -362 -429 -751 -502 -1240 -25 -173 -25 -626 0 -815 122 -904 565
-1698 1432 -2565 418 -419 756 -707 1690 -1440 848 -667 1048 -837 1381 -1169
121 -122 260 -270 308 -331 106 -132 250 -347 290 -433 16 -34 32 -62 35 -62
3 0 24 35 46 78 113 221 298 456 590 748 329 330 538 507 1360 1152 264 207
565 446 670 531 904 735 1456 1300 1850 1896 349 527 541 1017 621 1585 26
180 26 656 1 824 -94 625 -323 1094 -736 1506 -429 428 -966 688 -1616 782
-143 21 -601 17 -750 -6 -713 -109 -1289 -467 -1672 -1039 -106 -158 -231
-417 -297 -617 -30 -91 -60 -165 -66 -165 -6 0 -35 74 -65 165 -215 642 -639
1140 -1209 1420 -179 87 -301 132 -490 180 -232 59 -346 72 -626 75 -135 2
-258 1 -275 -1z"/>
</g>
</svg>
